<svg xmlns="http://www.w3.org/2000/svg" xmlns:xlink="http://www.w3.org/1999/xlink" fill="none" version="1.1" width="48" height="48" viewBox="0 0 48 48"><g style="opacity:0.20000000298023224;"><g><path d="M23.99999630432129,10.170727187499999L41.12959630432129,18.7746171875Q41.21739630432129,18.8187171875,41.30909630432129,18.8540171875Q41.40079630432129,18.889317187499998,41.495496304321286,18.915417187499997Q41.59019630432129,18.9415171875,41.68709630432129,18.9582171875Q41.78389630432129,18.9750171875,41.88189630432129,18.982117187500002Q41.97989630432129,18.9892171875,42.07809630432129,18.9867171875Q42.17629630432129,18.9842171875,42.27379630432129,18.9721171875Q42.37129630432129,18.9600171875,42.46719630432129,18.9384171875Q42.56299630432129,18.9168171875,42.65629630432129,18.8859171875Q42.74959630432129,18.8550171875,42.83939630432129,18.8151171875Q42.92919630432129,18.775217187499997,43.01459630432129,18.7267171875Q43.09999630432129,18.6782171875,43.18029630432129,18.6216171875Q43.26059630432129,18.5649171875,43.33489630432129,18.5007171875Q43.40929630432129,18.4364171875,43.47699630432129,18.3652171875Q43.54469630432129,18.2940171875,43.605096304321286,18.2165171875Q43.66539630432129,18.139017187500002,43.717896304321286,18.0559171875Q43.77039630432129,17.972917187500002,43.81449630432129,17.8850971875Q43.90289630432129,17.7090671875,43.95529630432129,17.5191771875Q44.007696304321286,17.3292871875,44.02199630432129,17.132817187500002Q44.03629630432129,16.9363571875,44.01209630432129,16.7408771875Q43.987796304321286,16.5453971875,43.92579630432129,16.3584071875Q43.86389630432129,16.1714271875,43.76659630432129,16.000117187500003Q43.66939630432129,15.8288071875,43.54059630432129,15.6797571875Q43.41179630432129,15.530717187499999,43.25639630432129,15.409657187499999Q43.10099630432129,15.288597187499999,42.92499630432129,15.2001871875L24.89769630432129,6.1453971875Q24.68879630432129,6.0404571874999995,24.46129630432129,5.9865371875Q24.233796304321288,5.9326171875,23.99999630432129,5.9326171875Q23.76619630432129,5.9326171875,23.538696304321288,5.9865371875Q23.31119630432129,6.0404571874999995,23.10229630432129,6.1453971875L5.075008304321289,15.2001871875Q4.898986304321289,15.288597187499999,4.743586304321289,15.409657187499999Q4.588196304321289,15.530717187499999,4.459396304321289,15.6797571875Q4.3306063043212895,15.8288071875,4.233366304321289,16.000117187500003Q4.136126304321289,16.1714271875,4.0741763043212895,16.3584071875Q4.012226304321289,16.5453971875,3.987946304321289,16.7408771875Q3.963666304321289,16.9363571875,3.977986304321289,17.132817187500002Q3.992316304321289,17.3292871875,4.044686304321289,17.5191771875Q4.097066304321289,17.7090671875,4.1854763043212895,17.8850971875Q4.229576304321289,17.972917187500002,4.2820663043212885,18.0559171875Q4.334566304321289,18.139017187500002,4.394946304321289,18.2165171875Q4.455326304321289,18.2940171875,4.523016304321289,18.3652171875Q4.590706304321289,18.4364171875,4.665046304321289,18.5007171875Q4.739396304321289,18.5649171875,4.819676304321289,18.6216171875Q4.8999563043212895,18.6782171875,4.985406304321289,18.7267171875Q5.070854304321289,18.775217187499997,5.1606443043212895,18.8151171875Q5.250434304321289,18.8550171875,5.343702304321289,18.8859171875Q5.436970304321289,18.9168171875,5.532818304321289,18.9384171875Q5.628666304321289,18.9600171875,5.726170304321289,18.9721171875Q5.823675304321289,18.9842171875,5.921897104321289,18.9867171875Q6.020119104321289,18.9892171875,6.118112304321289,18.982117187500002Q6.216106304321289,18.9750171875,6.312928304321289,18.9582171875Q6.409749304321289,18.9415171875,6.504466304321289,18.915417187499997Q6.599183304321289,18.889317187499998,6.690884304321289,18.8540171875Q6.782584304321289,18.8187171875,6.8703843043212895,18.7746171875L23.99999630432129,10.170727187499999Z" fill-rule="evenodd" fill="#FFFFFF" fill-opacity="1"/></g><g><path d="M24.96769630432129,28.704305505371096L42.99499630432129,18.737505505371093Q43.08099630432129,18.689965505371095,43.16189630432129,18.634235505371095Q43.24279630432129,18.578495505371095,43.31789630432129,18.515095505371093Q43.39289630432129,18.451685505371096,43.46139630432129,18.381235505371095Q43.52989630432129,18.310785505371094,43.59109630432129,18.233955505371092Q43.652396304321286,18.157125505371095,43.70579630432129,18.074665505371094Q43.759196304321286,17.992205505371093,43.80429630432129,17.904907505371092Q43.84939630432129,17.817608505371094,43.885696304321286,17.726310505371092Q43.92199630432129,17.635011505371093,43.94919630432129,17.540594505371093Q43.97639630432129,17.446176505371092,43.99419630432129,17.349548505371093Q44.011996304321286,17.252921505371095,44.02029630432129,17.155013505371095Q44.02849630432129,17.057106505371095,44.02709630432129,16.958862705371093Q44.025696304321286,16.860618505371093,44.01469630432129,16.762984505371094Q44.00369630432129,16.665350505371094,43.98319630432129,16.569265505371092Q43.96259630432129,16.473181505371095,43.932796304321286,16.379572505371094Q43.90289630432129,16.285962505371092,43.86399630432129,16.195730505371095Q43.82519630432129,16.105497505371094,43.77759630432129,16.019510505371095Q43.68229630432129,15.847125505371094,43.55519630432129,15.696635505371093Q43.428096304321286,15.546155505371093,43.27409630432129,15.423355505371093Q43.11999630432129,15.300565505371093,42.944996304321286,15.210175505371094Q42.76999630432129,15.119795505371094,42.580696304321286,15.065285505371094Q42.39139630432129,15.010785505371093,42.19509630432129,14.994255505371093Q41.99879630432129,14.977725505371094,41.803096304321286,14.999815505371094Q41.60729630432129,15.021895505371093,41.41969630432129,15.081745505371094Q41.23199630432129,15.141595505371093,41.05959630432129,15.236905505371094L23.99999630432129,24.668685505371094L6.940391304321289,15.236905505371094Q6.768001304321289,15.141595505371093,6.580330304321289,15.081745505371094Q6.392658304321289,15.021895505371093,6.196917304321289,14.999815505371094Q6.001176404321289,14.977725505371094,5.804888304321289,14.994255505371093Q5.608600304321289,15.010785505371093,5.419308304321289,15.065285505371094Q5.230015304321289,15.119795505371094,5.054994304321289,15.210175505371094Q4.879976304321289,15.300565505371093,4.725946304321289,15.423355505371093Q4.571916304321289,15.546155505371093,4.444806304321289,15.696635505371093Q4.317706304321289,15.847125505371094,4.222396304321289,16.019510505371095Q4.127086304321289,16.191900505371095,4.067236304321289,16.379571505371093Q4.007386304321289,16.567243505371092,3.985306304321289,16.762984505371094Q3.963216304321289,16.958725405371094,3.979746304321289,17.155013505371095Q3.996276304321289,17.351301505371094,4.050776304321289,17.540593505371092Q4.1052863043212895,17.729886505371095,4.195666304321289,17.904907505371092Q4.286056304321289,18.079925505371094,4.408846304321289,18.233955505371092Q4.531646304321289,18.387985505371095,4.682126304321289,18.515095505371093Q4.832616304321289,18.642195505371095,5.005001304321289,18.737505505371093L23.03229630432129,28.704305505371096Q23.14299630432129,28.765505505371095,23.26039630432129,28.812205505371093Q23.37789630432129,28.859005505371094,23.50029630432129,28.89060550537109Q23.622696304321288,28.922205505371096,23.74819630432129,28.938105505371094Q23.87359630432129,28.954005505371093,23.99999630432129,28.954005505371093Q24.12639630432129,28.954005505371093,24.25189630432129,28.938105505371094Q24.377296304321288,28.922205505371096,24.49969630432129,28.89060550537109Q24.62209630432129,28.859005505371094,24.73959630432129,28.812205505371093Q24.85709630432129,28.765505505371095,24.96769630432129,28.704305505371096Z" fill-rule="evenodd" fill="#FFFFFF" fill-opacity="1"/></g><g></g><g transform="matrix(0,1,-1,0,35.47021484375,9.76708984375)"><line x1="12.8515625" y1="20.61865234375" x2="25.1357421875" y2="20.61865234375" fill-opacity="0" stroke-opacity="1" stroke="#FFFFFF" fill="none" stroke-width="4" stroke-linecap="ROUND"/></g><g transform="matrix(0,1,-1,0,53.76708984375,-8.52978515625)"><line x1="31.1484375" y1="20.61865234375" x2="43.4326171875" y2="20.61865234375" fill-opacity="0" stroke-opacity="1" stroke="#FFFFFF" fill="none" stroke-width="4" stroke-linecap="ROUND"/></g><g transform="matrix(0,1,-1,0,57.509765625,-17.490234375)"><line x1="37.5" y1="18.009765625" x2="46.990234375" y2="18.009765625" fill-opacity="0" stroke-opacity="1" stroke="#FFFFFF" fill="none" stroke-width="4" stroke-linecap="ROUND"/></g><g><path d="M24.89598239135742,42.27550448486328L34.04448239135742,37.69054448486328Q34.220582391357425,37.60229448486328,34.37608239135742,37.48137448486328Q34.53158239135742,37.36045448486328,34.66048239135742,37.21151448486328Q34.78938239135742,37.06258448486328,34.88678239135742,36.891363484863284Q34.98418239135742,36.720141484863284,35.04628239135742,36.53320848486328Q35.108382391357424,36.346275484863284,35.13288239135743,36.150816484863284Q35.15738239135742,35.95535778486328,35.14318239135742,35.75888348486328Q35.12908239135742,35.56240948486328,35.07688239135742,35.37247048486328Q35.02458239135743,35.18253248486328,34.93638239135743,35.00642848486328Q34.89238239135742,34.91858848486328,34.83988239135742,34.83548448486328Q34.78748239135742,34.752384484863285,34.72718239135742,34.67482448486328Q34.66688239135742,34.59725448486328,34.59928239135742,34.52598448486328Q34.53158239135742,34.45470448486328,34.45738239135742,34.39039448486328Q34.38308239135742,34.32609448486328,34.302782391357425,34.269374484863285Q34.22258239135742,34.21266448486328,34.13718239135742,34.16408448486328Q34.05178239135742,34.11550448486328,33.961982391357424,34.07553448486328Q33.87228239135742,34.03555448486328,33.77898239135742,34.004574484863284Q33.68578239135742,33.973594484863284,33.589982391357424,33.95189448486328Q33.49408239135742,33.93020448486328,33.39668239135742,33.91800448486328Q33.29918239135742,33.90580448486328,33.200882391357425,33.90322448486328Q33.10268239135742,33.90064448486328,33.00468239135742,33.90770448486328Q32.90668239135742,33.91475448486328,32.80988239135742,33.93138448486328Q32.71308239135742,33.94801448486328,32.618282391357425,33.97405448486328Q32.52358239135742,34.00009448486328,32.43178239135742,34.03529448486328Q32.34008239135743,34.07049448486328,32.252282391357426,34.11452448486328L23.999922391357423,38.25037448486328L15.747588391357422,34.11452448486328Q15.659749391357423,34.07049448486328,15.568017391357422,34.03529448486328Q15.476286391357421,34.00009448486328,15.381546391357421,33.97405448486328Q15.286806391357421,33.94801448486328,15.189969391357423,33.93138448486328Q15.093133391357421,33.91475448486328,14.995133391357422,33.90770448486328Q14.897133591357422,33.90064448486328,14.798913791357421,33.90322448486328Q14.700694391357422,33.90580448486328,14.603200391357422,33.91800448486328Q14.505706391357421,33.93020448486328,14.409878391357422,33.95189448486328Q14.314049391357422,33.973594484863284,14.220808391357423,34.004574484863284Q14.127567391357422,34.03555448486328,14.037812391357422,34.07553448486328Q13.948058391357423,34.11550448486328,13.862653391357423,34.16408448486328Q13.777252391357422,34.21266448486328,13.697012391357422,34.269374484863285Q13.616782391357422,34.32609448486328,13.542502391357422,34.39039448486328Q13.468212391357422,34.45470448486328,13.400582391357421,34.52598448486328Q13.332962391357421,34.59725448486328,13.272642391357422,34.67482448486328Q13.212332391357421,34.752384484863285,13.159912391357421,34.83548448486328Q13.107492391357422,34.91858848486328,13.063472391357422,35.00642848486328Q13.019442391357423,35.09426748486328,12.984242391357421,35.18599948486328Q12.949042391357422,35.277730484863284,12.923002391357421,35.37247048486328Q12.896962391357421,35.46721048486328,12.880332391357422,35.56404748486328Q12.863702391357421,35.660883484863284,12.856652391357422,35.75888348486328Q12.849592391357422,35.85688328486328,12.852172391357422,35.95510308486328Q12.854752391357422,36.05332248486328,12.866952391357422,36.150816484863284Q12.879152391357422,36.24831048486328,12.900842391357422,36.34413848486328Q12.922542391357421,36.43996748486328,12.953522391357422,36.53320848486328Q12.984502391357422,36.62644948486328,13.024482391357422,36.71620448486328Q13.064452391357422,36.80595848486328,13.113032391357422,36.891363484863284Q13.161612391357423,36.97676448486328,13.218322391357422,37.057004484863285Q13.275042391357422,37.13723448486328,13.339342391357421,37.21151448486328Q13.403652391357422,37.285804484863284,13.474932391357422,37.35343448486328Q13.546202391357422,37.421054484863284,13.623772391357422,37.48137448486328Q13.701332391357422,37.54168448486328,13.784432391357422,37.59410448486328Q13.867536391357422,37.64652448486328,13.955376391357422,37.69054448486328L23.103812391357422,42.27550448486328Q23.312422391357423,42.38005448486328,23.539502391357424,42.43377448486328Q23.76657239135742,42.487494484863284,23.999922391357423,42.487494484863284Q24.23326239135742,42.487494484863284,24.460342391357422,42.43377448486328Q24.68741239135742,42.38006448486328,24.89598239135742,42.27550448486328Z" fill-rule="evenodd" fill="#FFFFFF" fill-opacity="1"/></g></g></svg>