<svg xmlns="http://www.w3.org/2000/svg" xmlns:xlink="http://www.w3.org/1999/xlink" fill="none" version="1.1" width="48" height="48" viewBox="0 0 48 48"><g style="opacity:0.20000000298023224;"><g><path d="M5.757036,15.757037Q4,17.51407,4,20L4,40Q4,42.4859,5.757036,44.242999999999995Q7.51407,46,10,46L38,46Q40.4859,46,42.243,44.242999999999995Q44,42.4859,44,40L44,20Q44,17.51407,42.243,15.757037Q40.4859,14,38,14L10,14Q7.51407,14,5.757036,15.757037ZM8,40L8,20Q8,19.17093,8.58546,18.58546Q9.17093,18,10,18L38,18Q38.8291,18,39.4145,18.58546Q40,19.17093,40,20L40,40Q40,40.8291,39.4145,41.414500000000004Q38.8291,42,38,42L10,42Q9.17093,42,8.58546,41.414500000000004Q8,40.8291,8,40Z" fill-rule="evenodd" fill="#FFFFFF" fill-opacity="1"/></g><g><path d="M12.344536,15.6555Q14.689070000000001,18,18,18Q18.09825,18,18.19603,17.9904Q18.29381,17.9807,18.39018,17.9616Q18.48655,17.9424,18.58057,17.913899999999998Q18.674590000000002,17.8854,18.76537,17.8478Q18.85614,17.810200000000002,18.94279,17.7638Q19.02945,17.7175,19.11114,17.6629Q19.19284,17.6084,19.26879,17.546Q19.34474,17.4837,19.41421,17.4142Q19.48369,17.3447,19.54602,17.2688Q19.60835,17.1928,19.66294,17.1111Q19.71753,17.029400000000003,19.763840000000002,16.9428Q19.81016,16.856099999999998,19.84776,16.7654Q19.88536,16.674599999999998,19.91388,16.5806Q19.9424,16.4865,19.961570000000002,16.3902Q19.98074,16.293799999999997,19.99037,16.195999999999998Q20,16.098300000000002,20,16Q20,15.9017,19.99037,15.804Q19.98074,15.7062,19.961570000000002,15.6098Q19.9424,15.5135,19.91388,15.4194Q19.88536,15.3254,19.84776,15.2346Q19.81016,15.1439,19.763840000000002,15.0572Q19.71753,14.9706,19.66294,14.8889Q19.60835,14.8072,19.54602,14.7312Q19.48369,14.6553,19.41421,14.5858Q19.34474,14.5163,19.26879,14.454Q19.19284,14.3916,19.11114,14.3371Q19.02944,14.2825,18.94279,14.2362Q18.85614,14.1898,18.76537,14.1522Q18.674590000000002,14.1146,18.58057,14.0861Q18.48655,14.0576,18.39018,14.0384Q18.29381,14.0193,18.19603,14.0096Q18.09825,14,18,14Q16.34593,14,15.17296,12.82704Q14,11.65407,14,10Q14,8.34593,15.17296,7.17296Q16.34593,6,18,6Q19.65407,6,20.82704,7.17296Q22,8.34593,22,10Q22,10.09825,22.0096,10.19603Q22.0193,10.29381,22.0384,10.39018Q22.0576,10.486550000000001,22.086100000000002,10.58057Q22.1146,10.67459,22.1522,10.76537Q22.189799999999998,10.85614,22.2362,10.942789999999999Q22.2825,11.02945,22.3371,11.111139999999999Q22.3916,11.19284,22.454,11.26879Q22.5163,11.34474,22.5858,11.41421Q22.6553,11.48369,22.7312,11.54602Q22.8072,11.60835,22.8889,11.662939999999999Q22.970599999999997,11.71753,23.0572,11.76384Q23.143900000000002,11.81016,23.2346,11.847760000000001Q23.325400000000002,11.88536,23.4194,11.913879999999999Q23.5135,11.9424,23.6098,11.96157Q23.706200000000003,11.98074,23.804000000000002,11.99037Q23.901699999999998,12,24,12Q24.098300000000002,12,24.195999999999998,11.99037Q24.293799999999997,11.98074,24.3902,11.96157Q24.4865,11.9424,24.5806,11.913879999999999Q24.674599999999998,11.88536,24.7654,11.847760000000001Q24.856099999999998,11.81016,24.9428,11.76384Q25.029400000000003,11.71753,25.1111,11.662939999999999Q25.1928,11.60835,25.2688,11.54602Q25.3447,11.48369,25.4142,11.41421Q25.4837,11.34474,25.546,11.26879Q25.6084,11.19284,25.6629,11.111139999999999Q25.7175,11.029440000000001,25.7638,10.942789999999999Q25.810200000000002,10.85614,25.8478,10.76537Q25.8854,10.67459,25.913899999999998,10.58057Q25.9424,10.486550000000001,25.9616,10.39018Q25.9807,10.29381,25.9904,10.19603Q26,10.09825,26,10Q26,6.68907,23.6555,4.344536Q21.31093,2,18,2Q14.689070000000001,2,12.344536,4.344536Q10,6.68907,10,10Q10,13.31093,12.344536,15.6555Z" fill-rule="evenodd" fill="#FFFFFF" fill-opacity="1"/></g><g><path d="M24.344537,4.344536Q22,6.68907,22,10Q22,10.09825,22.00963,10.19603Q22.01926,10.29381,22.038429999999998,10.39018Q22.0576,10.486550000000001,22.08612,10.58057Q22.11464,10.67459,22.15224,10.76537Q22.18984,10.85614,22.236159999999998,10.942789999999999Q22.28247,11.02945,22.33706,11.111139999999999Q22.39165,11.19284,22.45398,11.26879Q22.51631,11.34474,22.58579,11.41421Q22.65526,11.48369,22.73121,11.54602Q22.80716,11.60835,22.88886,11.662939999999999Q22.97055,11.71753,23.057207,11.76384Q23.143859,11.81016,23.234633,11.847760000000001Q23.325408,11.88536,23.419431,11.913879999999999Q23.513454,11.9424,23.609819,11.96157Q23.706185,11.98074,23.803966,11.99037Q23.9017463,12,24,12Q24.0982537,12,24.196034,11.99037Q24.293815,11.98074,24.390181,11.96157Q24.486546,11.9424,24.580569,11.913879999999999Q24.674592,11.88536,24.765367,11.847760000000001Q24.856141,11.81016,24.942793,11.76384Q25.02945,11.71753,25.11114,11.662939999999999Q25.19284,11.60835,25.26879,11.54602Q25.34474,11.48369,25.41421,11.41421Q25.48369,11.34474,25.54602,11.26879Q25.60835,11.19284,25.66294,11.111139999999999Q25.71753,11.029440000000001,25.763840000000002,10.942789999999999Q25.81016,10.85614,25.84776,10.76537Q25.88536,10.67459,25.91388,10.58057Q25.9424,10.486550000000001,25.961570000000002,10.39018Q25.98074,10.29381,25.99037,10.19603Q26,10.09825,26,10Q26,8.34593,27.17296,7.17296Q28.34593,6,30,6Q31.65407,6,32.82704,7.17296Q34,8.34593,34,10Q34,11.65407,32.82704,12.82704Q31.65408,14,30,14Q29.90175,14,29.80397,14.0096Q29.70618,14.0193,29.60982,14.0384Q29.51345,14.0576,29.41943,14.0861Q29.325409999999998,14.1146,29.23463,14.1522Q29.14386,14.1898,29.05721,14.2362Q28.97055,14.2825,28.88886,14.3371Q28.80716,14.3916,28.73121,14.454Q28.65526,14.5163,28.58579,14.5858Q28.51631,14.6553,28.45398,14.7312Q28.39165,14.8072,28.33706,14.8889Q28.28247,14.9706,28.236159999999998,15.0572Q28.18984,15.1439,28.15224,15.2346Q28.11464,15.3254,28.08612,15.4194Q28.0576,15.5135,28.038429999999998,15.6098Q28.01926,15.7062,28.00963,15.804Q28,15.9017,28,16Q28,16.098300000000002,28.00963,16.195999999999998Q28.01926,16.293799999999997,28.038429999999998,16.3902Q28.0576,16.4865,28.08612,16.5806Q28.11464,16.674599999999998,28.15224,16.7654Q28.18984,16.856099999999998,28.236159999999998,16.9428Q28.28247,17.029400000000003,28.33706,17.1111Q28.39165,17.1928,28.45398,17.2688Q28.51631,17.3447,28.58579,17.4142Q28.65526,17.4837,28.73121,17.546Q28.80716,17.6084,28.88886,17.6629Q28.97055,17.7175,29.05721,17.7638Q29.14386,17.810200000000002,29.23463,17.8478Q29.325409999999998,17.8854,29.41943,17.913899999999998Q29.51345,17.9424,29.60982,17.9616Q29.70618,17.9807,29.80397,17.9904Q29.90175,18,30,18Q33.31093,18,35.6555,15.6555Q38,13.31093,38,10Q38,6.68907,35.6555,4.344537Q33.31093,2,30,2Q26.68907,2,24.344537,4.344536Z" fill-rule="evenodd" fill="#FFFFFF" fill-opacity="1"/></g><g><path d="M22,44L22,10Q22,9.9017463,22.00963,9.803966Q22.01926,9.706185,22.038429999999998,9.609819Q22.0576,9.513454,22.08612,9.419431Q22.11464,9.325408,22.15224,9.234633Q22.18984,9.143858999999999,22.236159999999998,9.057207Q22.28247,8.97055,22.33706,8.88886Q22.39165,8.80716,22.45398,8.73121Q22.51631,8.65526,22.58579,8.58579Q22.65526,8.51631,22.73121,8.45398Q22.80716,8.39165,22.88886,8.33706Q22.97055,8.28247,23.057207,8.23616Q23.143859,8.18984,23.234633,8.152239999999999Q23.325408,8.11464,23.419431,8.08612Q23.513454,8.0576,23.609819,8.03843Q23.706185,8.01926,23.803966,8.00963Q23.9017463,8,24,8Q24.0982537,8,24.196034,8.00963Q24.293815,8.01926,24.390181,8.03843Q24.486546,8.0576,24.580569,8.08612Q24.674592,8.11464,24.765367,8.152239999999999Q24.856141,8.18984,24.942793,8.23616Q25.02945,8.28247,25.11114,8.33706Q25.19284,8.39165,25.26879,8.45398Q25.34474,8.51631,25.41421,8.58579Q25.48369,8.65526,25.54602,8.73121Q25.60835,8.80716,25.66294,8.88886Q25.71753,8.97055,25.763840000000002,9.057207Q25.81016,9.143858999999999,25.84776,9.234633Q25.88536,9.325408,25.91388,9.419431Q25.9424,9.513454,25.961570000000002,9.609819Q25.98074,9.706185,25.99037,9.803966Q26,9.9017463,26,10L26,44Q26,44.0983,25.99037,44.196Q25.98074,44.2938,25.961570000000002,44.3902Q25.9424,44.4865,25.91388,44.5806Q25.88536,44.6746,25.84776,44.7654Q25.81016,44.8561,25.763840000000002,44.9428Q25.71753,45.0294,25.66294,45.1111Q25.60835,45.1928,25.54602,45.2688Q25.48369,45.3447,25.41421,45.4142Q25.34474,45.4837,25.26879,45.546Q25.19284,45.6084,25.11114,45.6629Q25.02945,45.7175,24.942793,45.7638Q24.856141,45.8102,24.765367,45.8478Q24.674592,45.8854,24.580569,45.9139Q24.486546,45.9424,24.390181,45.9616Q24.293815,45.9807,24.196034,45.9904Q24.0982537,46,24,46Q23.9017463,46,23.803966,45.9904Q23.706185,45.9807,23.609819,45.9616Q23.513454,45.9424,23.419431,45.9139Q23.325408,45.8854,23.234633,45.8478Q23.143859,45.8102,23.057207,45.7638Q22.97055,45.7175,22.88886,45.6629Q22.80716,45.6083,22.73121,45.546Q22.65526,45.4837,22.58579,45.4142Q22.51631,45.3447,22.45398,45.2688Q22.39165,45.1928,22.33706,45.1111Q22.28247,45.0294,22.236159999999998,44.9428Q22.18984,44.8561,22.15224,44.7654Q22.11464,44.6746,22.08612,44.5806Q22.0576,44.4865,22.038429999999998,44.3902Q22.01926,44.2938,22.00963,44.196Q22,44.0983,22,44Z" fill-rule="evenodd" fill="#FFFFFF" fill-opacity="1"/></g><g><path d="M6,28L42,28Q42.0983,28,42.196,28.00963Q42.2938,28.01926,42.3902,28.038429999999998Q42.4865,28.0576,42.5806,28.08612Q42.6746,28.11464,42.7654,28.15224Q42.8561,28.18984,42.9428,28.236159999999998Q43.0294,28.28247,43.1111,28.33706Q43.1928,28.39165,43.2688,28.45398Q43.3447,28.51631,43.4142,28.58579Q43.4837,28.65526,43.546,28.73121Q43.6083,28.80716,43.6629,28.88886Q43.7175,28.97055,43.7638,29.057207Q43.8102,29.143859,43.8478,29.234633Q43.8854,29.325408,43.9139,29.419431Q43.9424,29.513454,43.9616,29.609819Q43.9807,29.706185,43.9904,29.803966Q44,29.9017463,44,30Q44,30.0982537,43.9904,30.196034Q43.9807,30.293815,43.9616,30.390181Q43.9424,30.486546,43.9139,30.580569Q43.8854,30.674592,43.8478,30.765367Q43.8102,30.856141,43.7638,30.942793Q43.7175,31.02945,43.6629,31.11114Q43.6083,31.19284,43.546,31.26879Q43.4837,31.34474,43.4142,31.41421Q43.3447,31.48369,43.2688,31.54602Q43.1928,31.60835,43.1111,31.66294Q43.0294,31.71753,42.9428,31.763840000000002Q42.8561,31.81016,42.7654,31.84776Q42.6746,31.88536,42.5806,31.91388Q42.4865,31.9424,42.3902,31.961570000000002Q42.2938,31.98074,42.196,31.99037Q42.0983,32,42,32L6,32Q5.9017463,32,5.803966,31.99037Q5.706185,31.98074,5.609819,31.961570000000002Q5.513454,31.9424,5.419431,31.91388Q5.325408,31.88536,5.234633,31.84776Q5.143859,31.81016,5.057207,31.763840000000002Q4.97055,31.71753,4.88886,31.66294Q4.80716,31.60835,4.73121,31.54602Q4.65526,31.48369,4.58579,31.41421Q4.51631,31.34474,4.45398,31.26879Q4.39165,31.19284,4.33706,31.11114Q4.28247,31.02945,4.23616,30.942793Q4.18984,30.856141,4.15224,30.765367Q4.11464,30.674592,4.08612,30.580569Q4.0576,30.486546,4.03843,30.390181Q4.01926,30.293815,4.00963,30.196034Q4,30.0982537,4,30Q4,29.9017463,4.00963,29.803966Q4.01926,29.706185,4.03843,29.609819Q4.0576,29.513454,4.08612,29.419431Q4.11464,29.325408,4.15224,29.234633Q4.18984,29.143859,4.23616,29.057207Q4.28247,28.97055,4.33706,28.88886Q4.39165,28.80716,4.45398,28.73121Q4.51631,28.65526,4.58579,28.58579Q4.65526,28.51631,4.73121,28.45398Q4.80716,28.39165,4.88886,28.33706Q4.97055,28.28247,5.057207,28.236159999999998Q5.143859,28.18984,5.234633,28.15224Q5.325408,28.11464,5.419431,28.08612Q5.513454,28.0576,5.609819,28.038429999999998Q5.706185,28.01926,5.803966,28.00963Q5.9017463,28,6,28Z" fill-rule="evenodd" fill="#FFFFFF" fill-opacity="1"/></g><g></g></g></svg>