<svg xmlns="http://www.w3.org/2000/svg" xmlns:xlink="http://www.w3.org/1999/xlink" fill="none" version="1.1" width="48" height="48" viewBox="0 0 48 48"><g style="opacity:0.20000000298023224;"><g><path d="M3.147214,32.77885620956421Q4.323687,33.99995620956421,6,33.99995620956421L13.1318,33.99995620956421L19.073999999999998,40.69735620956421Q19.093,40.71875620956421,19.1126,40.73965620956421Q20.0111,41.695656209564206,21.2633,41.93145620956421Q22.4281,42.15065620956421,23.5349,41.68115620956421Q24.6259,41.218356209564206,25.2924,40.24065620956421Q26,39.20265620956421,26,37.909956209564214L26,10.089996209564209Q26,8.806453209564209,25.3029,7.772078209564209Q24.6443,6.794966209564209,23.5629,6.326216209564209Q22.4638,5.849826209564209,21.3011,6.058476209564209Q20.0539,6.282296209564209,19.1485,7.223562209564209Q19.119799999999998,7.253480209564209,19.0923,7.284566209564209L13.1494,13.999996209564209L6,13.999996209564209Q4.323688,13.999996209564209,3.147214,15.221096209564209Q2,16.41182620956421,2,18.07995620956421L2,29.91995620956421Q2,31.588156209564207,3.147214,32.77885620956421ZM13.16343,13.999996209564209L13.17,13.999996209564209L13.15754,13.99426620956421L13.16343,13.999996209564209ZM13.14789,33.99995620956421L13.14,34.00745620956421L13.16,33.99995620956421L13.14789,33.99995620956421ZM6.024509999999999,29.99995620956421Q6,29.97145620956421,6,29.91995620956421L6,18.07995620956421Q6,18.028556209564208,6.024509999999999,17.99995620956421L13.17,17.99995620956421Q14.8393,17.99995620956421,16.0225,16.78573620956421Q16.0559,16.75136620956421,16.087699999999998,16.71543620956421L21.9961,10.03893620956421Q22,10.05966620956421,22,10.089996209564209L22,37.909956209564214Q22,37.94215620956421,21.9953,37.96285620956421L16.086,31.30265620956421Q16.0634,31.277156209564208,16.04,31.252456209564208Q14.8501,29.99995620956421,13.16,29.99995620956421L6.024509999999999,29.99995620956421Z" fill-rule="evenodd" fill="#FFFFFF" fill-opacity="1"/></g><g><path d="M31.574867,27.2759Q31.152235,28.797,30.4,29.8Q30.34105,29.8786,30.29008,29.962600000000002Q30.23912,30.046599999999998,30.19664,30.135199999999998Q30.15415,30.2238,30.12055,30.3161Q30.08696,30.4085,30.06257,30.5036Q30.03819,30.5988,30.02325,30.6959Q30.00831,30.793,30.00296,30.8911Q29.99762,30.9893,30.00191,31.087400000000002Q30.00621,31.1856,30.0201,31.2828Q30.034,31.3801,30.05736,31.4755Q30.08072,31.570999999999998,30.11332,31.6637Q30.14593,31.7564,30.18746,31.845399999999998Q30.22899,31.9344,30.27905,32.019Q30.32911,32.1035,30.38722,32.1828Q30.44532,32.262,30.51091,32.3351Q30.57651,32.4083,30.64895,32.4747Q30.7214,32.541,30.8,32.6Q30.8786,32.659,30.96261,32.7099Q31.046609,32.7609,31.135203,32.803399999999996Q31.223796,32.8458,31.316128,32.879400000000004Q31.408459,32.913,31.503639,32.9374Q31.598818,32.9618,31.69593,32.9767Q31.793041,32.9917,31.891149,32.997Q31.9892574,33.0024,32.0874172,32.9981Q32.185577,32.9938,32.282843,32.9799Q32.380109,32.966,32.475545,32.9426Q32.570981,32.9193,32.663668,32.8867Q32.756354,32.8541,32.845398,32.8125Q32.934443,32.771,33.01899,32.7209Q33.10353,32.6709,33.18276,32.6128Q33.26199,32.5547,33.33515,32.4891Q33.4083,32.423500000000004,33.47468,32.3511Q33.54105,32.2786,33.6,32.2Q34.80448,30.594,35.42888,28.346600000000002Q36.0025,26.282049999999998,36.0025,24Q36.0025,21.717950000000002,35.42888,19.65336Q34.80448,17.40597,33.6,15.8Q33.54105,15.7214,33.47468,15.64895Q33.4083,15.57651,33.33515,15.510909999999999Q33.26199,15.44532,33.18276,15.38722Q33.10353,15.32911,33.01899,15.27905Q32.934443,15.22899,32.845398,15.18746Q32.756354,15.14593,32.663668,15.11332Q32.570981,15.08072,32.475545,15.05736Q32.380109,15.034,32.282843,15.0201Q32.185577,15.00621,32.0874172,15.00191Q31.9892574,14.99762,31.891149,15.00296Q31.793041,15.00831,31.69593,15.02325Q31.598818,15.03819,31.503639,15.062570000000001Q31.408459,15.08696,31.316128,15.12055Q31.223796,15.15415,31.135203,15.19664Q31.046609,15.23912,30.96261,15.29008Q30.8786,15.34105,30.8,15.4Q30.7214,15.45895,30.64895,15.52532Q30.57651,15.5917,30.51091,15.66485Q30.44532,15.73801,30.38722,15.81724Q30.32911,15.89647,30.27905,15.98101Q30.22899,16.065557,30.18746,16.154602Q30.14593,16.243646,30.11332,16.336332Q30.08072,16.429019,30.05736,16.524455Q30.034,16.619891,30.0201,16.717157Q30.00621,16.814423,30.00191,16.9125828Q29.99762,17.0107426,30.00296,17.108851Q30.00831,17.206959,30.02325,17.30407Q30.03819,17.401182,30.06257,17.496361Q30.08696,17.591541,30.12055,17.683872Q30.15415,17.776204,30.19664,17.864797Q30.23912,17.953391,30.29008,18.03739Q30.34105,18.1214,30.4,18.2Q31.152234,19.20298,31.574867,20.72414Q32.00249863,22.2633,32.00249863,24Q32.00249864,25.7367,31.574867,27.2759Z" fill-rule="evenodd" fill="#FFFFFF" fill-opacity="1"/></g><g><path d="M40.66107,30.7299Q39.26861,34.0523,36.62718,36.5456Q36.55573,36.613,36.49123,36.6871Q36.42673,36.7613,36.36981,36.841300000000004Q36.31289,36.9214,36.26409,37.006699999999995Q36.2153,37.092,36.17509,37.1816Q36.13489,37.2713,36.10367,37.3645Q36.07244,37.4576,36.0505,37.553399999999996Q36.02856,37.6492,36.01612,37.7466Q36.00367,37.8441,36.00083,37.9423Q35.998,38.0405,36.0048,38.1385Q36.01161,38.2365,36.02799,38.3334Q36.04437,38.4303,36.07017,38.525099999999995Q36.09596,38.6199,36.13093,38.7117Q36.16589,38.8036,36.20969,38.8915Q36.25349,38.9795,36.30569,39.0627Q36.3579,39.1459,36.41801,39.2237Q36.47813,39.3014,36.54557,39.3728Q36.68078,39.5161,36.84134,39.6302Q37.001901,39.744299999999996,37.181639,39.8249Q37.361377,39.9055,37.553385,39.9495Q37.745394,39.9935,37.9422948,39.9992Q38.139196,40.0049,38.333422,39.972Q38.527648,39.9392,38.711735,39.8691Q38.895823,39.799,39.0627,39.6943Q39.22957,39.589600000000004,39.37282,39.4544Q42.63028,36.3797,44.35018,32.275999999999996Q46.00423,28.3294,46,24.0168Q45.995779999999996,19.71079,44.3393,15.75299Q42.62079,11.64698,39.38121,8.55354Q39.23875,8.4175,39.07248,8.31187Q38.906212,8.20624,38.722532,8.13508Q38.538852,8.06391,38.344819,8.02995Q38.150785,7.99599,37.9538546,8.00053Q37.756925,8.00508,37.564666,8.04796Q37.372406,8.09083,37.192206,8.17039Q37.012006,8.24995,36.85079,8.36314Q36.68957,8.47633,36.55354,8.61879Q36.48568,8.68985,36.42512,8.76722Q36.36456,8.84459,36.31187,8.92752Q36.25918,9.010453,36.21488,9.098151Q36.17057,9.185849,36.13508,9.277467Q36.09958,9.369085,36.07323,9.463741Q36.04689,9.558397,36.02995,9.655179Q36.01301,9.751962,36.00564,9.849939Q35.99827,9.947916,36.00053,10.0461438Q36.0028,10.144372,36.01468,10.241904Q36.02657,10.339437,36.04795,10.435335Q36.06934,10.531233,36.10002,10.624573999999999Q36.13071,10.717914,36.17039,10.807797Q36.21008,10.897681,36.25838,10.983241Q36.30668,11.0688,36.36314,11.14922Q36.4196,11.22963,36.48366,11.30412Q36.54773,11.37862,36.61879,11.44647Q39.25372,13.962530000000001,40.64945,17.29733Q41.99657,20.516,42,24.020699999999998Q42.00344,27.527,40.66107,30.7299Z" fill-rule="evenodd" fill="#FFFFFF" fill-opacity="1"/></g><g></g></g></svg>