<svg xmlns="http://www.w3.org/2000/svg" xmlns:xlink="http://www.w3.org/1999/xlink" fill="none" version="1.1" width="48" height="48" viewBox="0 0 48 48"><g style="opacity:0.20000000298023224;"><g style="opacity:0;"><rect x="0" y="0" width="48" height="48" rx="0" fill="#FFFFFF" fill-opacity="1"/></g><g><rect x="7" y="6" width="23" height="36" rx="2" fill-opacity="0" stroke-opacity="1" stroke="#FFFFFF" fill="none" stroke-width="4"/></g><g><rect x="11" y="10" width="6" height="6" rx="2" fill="#333333" fill-opacity="1"/><rect x="13" y="12" width="2" height="2" rx="0" fill-opacity="0" stroke-opacity="1" stroke="#FFFFFF" fill="none" stroke-width="4"/></g><g><rect x="20" y="10" width="6" height="6" rx="2" fill="#333333" fill-opacity="1"/><rect x="22" y="12" width="2" height="2" rx="0" fill-opacity="0" stroke-opacity="1" stroke="#FFFFFF" fill="none" stroke-width="4"/></g><g><rect x="30" y="15" width="11" height="27" rx="2" fill-opacity="0" stroke-opacity="1" stroke="#FFFFFF" fill="none" stroke-width="4"/></g><g><rect x="11" y="18" width="6" height="6" rx="2" fill="#333333" fill-opacity="1"/><rect x="13" y="20" width="2" height="2" rx="0" fill-opacity="0" stroke-opacity="1" stroke="#FFFFFF" fill="none" stroke-width="4"/></g><g><rect x="11" y="26" width="6" height="6" rx="2" fill="#333333" fill-opacity="1"/><rect x="13" y="28" width="2" height="2" rx="0" fill-opacity="0" stroke-opacity="1" stroke="#FFFFFF" fill="none" stroke-width="4"/></g><g><rect x="20" y="18" width="6" height="6" rx="2" fill="#333333" fill-opacity="1"/><rect x="22" y="20" width="2" height="2" rx="0" fill-opacity="0" stroke-opacity="1" stroke="#FFFFFF" fill="none" stroke-width="4"/></g><g><rect x="20" y="26" width="6" height="6" rx="2" fill="#333333" fill-opacity="1"/><rect x="22" y="28" width="2" height="2" rx="0" fill-opacity="0" stroke-opacity="1" stroke="#FFFFFF" fill="none" stroke-width="4"/></g></g></svg>