<svg xmlns="http://www.w3.org/2000/svg" xmlns:xlink="http://www.w3.org/1999/xlink" fill="none" version="1.1" width="258" height="72" viewBox="0 0 258 72"><g><path d="M5.92084,7.9375L4.68386,6.53125L18.7594,6.53125L18.9547,5.13802L17.6787,3.61458L27.5224,3.61458L27.0797,6.53125L36.8844,6.53125L36.3635,10.3333L12.275,10.3333L7.5224,32.3776L0.686467,32.3776L5.92084,7.9375ZM48.9417,10.3333L49.5406,8.30208L40.5042,8.30208L41.025,4.5L72.9521,4.5L72.4313,8.30208L63.2646,8.30208L62.9521,10.3333L71.3896,10.3333L68.3818,31.6224L37.9521,31.6224L40.9469,10.3333L48.9417,10.3333ZM62.7828,27.8333L63.3036,24.0573L54.9833,24.0573L56.3505,14.1354L54.0719,14.1354L51.5849,24.0573L45.5042,24.0573L47.9911,14.1354L46.4677,14.1354L44.5406,27.8333L62.7828,27.8333ZM62.4313,14.1354L61.7021,19.5L63.9417,19.5L64.7099,14.1354L62.4313,14.1354ZM55.0224,10.3333L56.8714,10.3333L57.1839,8.30208L55.6214,8.30208L55.0224,10.3333ZM89.7359,9.05729L82.1708,30.3333L74.5797,30.3333L80.8167,12.8594L77.4182,12.8594L77.9391,9.05729L89.7359,9.05729ZM84.0979,32.5339L87.7307,28.7839L91.012,5.09896L89.7359,3.5625L98.8505,3.5625L95.1786,29.8776Q95.0094,30.9974,94.0719,31.7656Q93.1344,32.5339,91.9755,32.5339L84.0979,32.5339ZM109.697,7.53386L106.689,12.8594L108.772,30.3333L101.168,30.3333L99.0979,12.8594L102.093,7.53386L109.697,7.53386ZM122.6,31.68L123.56,24.84L112.92,24.84L115.36,7.36L126,7.36L126.32,5.08L125,3.56L134.12,3.56L133.56,7.36L144.24,7.36L141.8,24.84L131.16,24.84L130.84,27.12L143,27.12L144.68,25.64L143.84,31.68L122.6,31.68ZM133.04,11.16L132.64,14.2L136.44,14.2L136.88,11.16L133.04,11.16ZM124.08,21.04L124.52,18L120.72,18L120.28,21.04L124.08,21.04ZM135.48,21.04L135.92,18L132.08,18L131.68,21.04L135.48,21.04ZM121.24,14.2L125.04,14.2L125.44,11.16L121.68,11.16L121.24,14.2ZM164.76,26.88L159.64,22.52L159.92,20.6L166.4,20.6L169.8,23.6L173.84,20.96L174,19.8L160.04,19.8L160.56,16.08L180.8,16.08L179.8,23.32L173.76,27.04L179.92,32.36L171.2,32.36L168.64,30.2L165.08,32.36L156.4,32.36L164.76,26.88ZM173.44,15.04L174.4,8.08L168.92,8.08L167.44,15.04L160.8,15.04L162.76,5.76L161.52,4.32L181.16,4.32L180.24,11.04L180.96,11.04L182.28,9.52L181.52,15.04L173.44,15.04ZM148.92,31.64L151.28,14.96L148.92,14.96L149.44,11.16L158.48,11.16L156.4,26.12L159.36,25.32L158.8,29.28L148.92,31.64ZM157.6,4.32L158.76,9.64L152.64,9.64L151.48,4.32L157.6,4.32ZM218.68,17.04L211.8,17.04L209.68,32.28L202.2,32.28L204.32,17.04L197,17.04L197.56,13.04L204.88,13.04L206.04,5L204.72,3.6L213.72,3.6L212.36,13.04L219.24,13.04L218.68,17.04ZM185.76,32.36L188.24,14.96L185.52,14.96L186.04,11.16L195.6,11.16L193.44,26.6L197,26.04L196.4,30.16L185.76,32.36ZM194.32,4.32L195.8,9.64L189.72,9.64L188.28,4.32L194.32,4.32ZM229.64,8.24L226.28,32.24L221.04,32.24L224.96,4.32L236.6,4.32L236.04,8.2L234.32,14.2L235.68,14.2L235.48,17.64L233.28,27.88L227.72,27.88L228.2,24.48L229.4,24.48L230.84,17.64L229.08,17.64L229.56,14.2L231.28,8.24L229.64,8.24ZM245.16,32.24L246.6,21.68L244.52,21.68L239.8,32.24L234.08,32.24L238.76,21.68L235.48,21.68L236,17.88L255.68,17.88L255.16,21.68L252.24,21.68L251.4,27.8L252.64,27.8L254.48,26.28L253.64,32.24L245.16,32.24ZM251.04,9.72L243.04,9.72L242.76,11.64L236.84,11.64L237.64,5.96L243.72,5.96L243.84,5.12L242.52,3.6L250.56,3.6L250.24,5.96L257.32,5.96L256.52,11.64L250.76,11.64L251.04,9.72ZM255,12.52L254.48,16.32L237.68,16.32L238.2,12.52L255,12.52ZM39.45,43.17L36.48,47.79L44.94,64.77L39.24,64.77L33.3,52.71L25.56,64.77L19.86,64.77L33.24,43.92L32.61,43.17L39.45,43.17ZM60.27,61.98L61.95,50.01L60.21,50.01L52.53,64.26L46.83,64.26L54.51,50.01L48.84,50.01L49.23,47.16L62.34,47.16L62.79,44.01L62.07,43.17L68.61,43.17L68.04,47.16L73.17,47.16L72.78,50.01L67.65,50.01L65.85,62.79Q65.7,63.66,65.04,64.215Q64.38,64.77,63.51,64.77L57.57,64.77L60.27,61.98ZM99.39,54.39L98.01,64.2L83.43,64.2L84.81,54.39L99.39,54.39ZM77.28,54.51L78,49.41L75.96,49.41L76.38,46.56L78.39,46.56L78.75,44.07L78.03,43.2L83.97,43.2L83.49,46.56L84.9,46.56L84.48,49.41L83.1,49.41L82.56,53.19L84,52.83L83.58,55.98L82.11,56.34L81.21,62.76Q81.09,63.63,80.415,64.185Q79.74,64.74,78.9,64.74L73.89,64.74L76.23,62.04L76.83,57.63L74.76,58.14L75.18,55.02L77.28,54.51ZM100.23,51.12Q100.11,51.99,99.45,52.59Q98.79,53.19,97.92,53.19L93.78,53.19L95.76,51.24L96.42,46.59L93.18,46.59L90.36,53.37L85.5,53.37L88.32,46.59L86.07,46.59L86.46,43.74L101.28,43.74L100.23,51.12ZM93.87,61.47L94.44,57.33L89.1,57.33L88.53,61.47L93.87,61.47ZM112.92,61.38L111.84,61.5L111.39,64.74L107.61,64.74L108,61.86L101.4,62.52L101.94,58.8L102.75,58.74L104.43,46.56L103.65,46.56L104.04,43.71L114.87,43.71L114.48,46.56L113.91,46.56L112.35,57.78L113.46,57.66L112.92,61.38ZM120.42,44.58L120.45,44.31L119.58,43.23L124.02,43.23L123.84,44.58L128.97,44.58L127.68,53.7L114.03,53.7L115.32,44.58L120.42,44.58ZM127.65,54.27L127.29,56.85L119.31,56.85L118.8,57.93L126.54,57.93L126.24,60.03L124.41,64.68L116.64,64.68L118.38,62.34L121.59,62.34L122.46,60.21L113.67,60.21L115.2,56.85L113.55,56.85L113.91,54.27L127.65,54.27ZM107.28,53.4L109.17,53.4L109.5,51.12L107.58,51.12L107.28,53.4ZM106.59,58.35L108.51,58.17L108.78,56.25L106.89,56.25L106.59,58.35ZM108,48.27L109.89,48.27L110.13,46.56L108.24,46.56L108,48.27ZM124.65,51.12L124.77,50.28L123.03,50.28L122.91,51.12L124.65,51.12ZM119.49,51.12L119.61,50.28L117.9,50.28L117.78,51.12L119.49,51.12ZM123.48,47.13L123.36,47.94L125.1,47.94L125.22,47.13L123.48,47.13ZM118.23,47.94L119.94,47.94L120.06,47.13L118.35,47.13L118.23,47.94ZM151.8,54L151.17,58.56L136.89,58.56L136.77,59.4L151.62,59.4L150.84,64.77L130.32,64.77L131.85,54L129.57,54L130.2,49.44L139.44,49.44L139.32,48.63L145.95,48.63L146.07,49.44L155.28,49.44L154.65,54L151.8,54ZM149.82,44.31L156,44.31L155.7,46.59L152.82,46.59L153.75,48.3L149.19,48.3L148.35,46.8L147.48,48.3L142.35,48.3L144.87,43.95L144.21,43.17L150.48,43.17L149.82,44.31ZM137.82,44.31L143.46,44.31L143.16,46.59L140.82,46.59L141.78,48.3L137.22,48.3L136.38,46.8L135.51,48.3L130.38,48.3L132.9,43.95L132.24,43.17L138.51,43.17L137.82,44.31ZM135.39,53.13L149.07,53.13L149.19,52.29L135.51,52.29L135.39,53.13ZM136.44,61.68L136.32,62.55L145.47,62.55L145.59,61.68L136.44,61.68ZM137.34,55.41L137.22,56.28L145.77,56.28L145.89,55.41L137.34,55.41ZM171.99,56.82L172.23,55.08L167.25,55.08L168.84,43.71L183.9,43.71L182.31,55.08L176.79,55.08L176.55,56.82L182.01,56.82L181.59,59.67L176.16,59.67L175.92,61.38L182.01,61.38L181.62,64.23L165.33,64.23L165.72,61.38L171.36,61.38L171.6,59.67L166.53,59.67L166.95,56.82L171.99,56.82ZM160.26,51.48L160.98,46.38L159.54,46.38L159.9,43.71L167.82,43.71L167.46,46.38L165.72,46.38L165,51.48L166.83,51.48L166.38,54.51L164.58,54.51L163.8,60.18L165.54,59.85L165.15,62.76L156.87,64.23L157.26,61.38L158.91,61.08L159.84,54.51L158.28,54.51L158.73,51.48L160.26,51.48ZM171.54,48.03L173.25,48.03L173.46,46.41L171.78,46.41L171.54,48.03ZM178.89,52.35L179.1,50.73L177.42,50.73L177.18,52.35L178.89,52.35ZM178.02,46.41L177.81,48.03L179.46,48.03L179.7,46.41L178.02,46.41ZM172.62,52.35L172.86,50.73L171.18,50.73L170.97,52.35L172.62,52.35ZM211.29,45.99L197.88,46.5L195.6,48.03L209.88,48.03L209.43,51.24L197.58,51.24L193.68,53.73L203.67,53.73L203.55,52.56L209.25,52.56L209.73,57.15L204.03,57.15L203.97,56.58L200.7,56.58L199.83,62.79Q199.68,63.66,199.02,64.215Q198.36,64.77,197.49,64.77L191.55,64.77L194.22,61.98L195,56.58L187.02,56.58L187.41,53.73L191.61,51.21L187.77,51.21L188.22,48.09L190.47,46.77L187.23,46.89L187.68,43.74L211.71,43.14L211.29,45.99ZM209.37,63.69L204.24,63.69L202.2,57.99L207.33,57.99L209.37,63.69ZM189.42,63.69L184.29,63.69L187.95,57.99L193.05,57.99L189.42,63.69ZM237.12,50.01L238.11,55.14L234.12,55.14L234,54.6L222.72,55.14L223.11,52.29L226.02,47.73L223.17,47.73L223.59,44.88L228.39,44.88L228.48,44.31L227.52,43.17L234.36,43.17L234.09,44.88L238.98,44.88L238.56,47.73L231.72,47.73L228.99,51.99L233.46,51.78L233.13,50.01L237.12,50.01ZM214.23,50.58L218.1,44.49L217.47,43.74L223.74,43.74L219.36,50.58L222.78,50.58L218.4,57.42L221.82,57.42L221.43,60.27L212.88,60.27L213.27,57.42L215.82,53.43L213.84,53.43L214.23,50.58ZM234.6,55.71L233.88,60.84L236.16,60.84L237.45,59.7L236.82,64.26L228.84,64.26L230.04,55.71L234.6,55.71ZM228.9,55.71L225.99,64.26L221.43,64.26L224.34,55.71L228.9,55.71ZM220.86,64.26L212.22,64.77L212.64,61.98L221.25,61.41L220.86,64.26Z" fill="#FFFFFF" fill-opacity="1"/></g></svg>