<svg xmlns="http://www.w3.org/2000/svg" xmlns:xlink="http://www.w3.org/1999/xlink" fill="none" version="1.1" width="681" height="80" viewBox="0 0 681 80"><g style="opacity:0.20000000298023224;"><path d="M-0.328125,74.88L11.6719,74.88L15.8281,59.88L34.9531,59.88L39.1094,74.88L51.5938,74.88L32.6406,15.88L18.625,15.88L-0.328125,74.88ZM18.3906,50.6925L20.1562,44.2237C21.9062,38.0831,23.5938,31.38,25.1875,24.9269L25.5156,24.9269C27.2656,31.2237,28.875,38.0831,30.7188,44.2237L32.4688,50.6925L18.3906,50.6925ZM58.28,74.88L69.56,74.88L69.56,51.12C69.56,44.32,68.52,36.88,68.04,30.48L68.44,30.48L74.44,43.2L91.48,74.88L103.56,74.88L103.56,15.6L92.36,15.6L92.36,39.28C92.36,46,93.32,53.84,93.96,60L93.56,60L87.56,47.2L70.36,15.6L58.28,15.6L58.28,74.88ZM118.2,74.88L129.48,74.88L129.48,51.12C129.48,44.32,128.44,36.88,127.96,30.48L128.36,30.48L134.36,43.2L151.4,74.88L163.48,74.88L163.48,15.6L152.28,15.6L152.28,39.28C152.28,46,153.24,53.84,153.88,60L153.48,60L147.48,47.2L130.28,15.6L118.2,15.6L118.2,74.88ZM201.64,76C217.32,76,228.12,64.24,228.12,44.96C228.12,25.76,217.32,14.56,201.64,14.56C185.96,14.56,175.16,25.76,175.16,44.96C175.16,64.24,185.96,76,201.64,76ZM201.64,65.76C192.84,65.76,187.32,57.6,187.32,44.96C187.32,32.32,192.84,24.72,201.64,24.72C210.44,24.72,216.04,32.32,216.04,44.96C216.04,57.6,210.44,65.76,201.64,65.76ZM262.518,75.88C276.909,75.88,285.315,67.7237,285.315,48.2706L285.315,15.88L273.956,15.88L273.956,49.3019C273.956,61.5206,269.393,65.6456,262.518,65.6456C255.549,65.6456,251.237,61.5206,251.237,49.3019L251.237,15.88L239.471,15.88L239.471,48.2706C239.471,67.7237,247.956,75.88,262.518,75.88ZM299.72,74.88L311,74.88L311,51.12C311,44.32,309.96,36.88,309.48,30.48L309.88,30.48L315.88,43.2L332.92,74.88L345,74.88L345,15.6L333.8,15.6L333.8,39.28C333.8,46,334.76,53.84,335.4,60L335,60L329,47.2L311.8,15.6L299.72,15.6L299.72,74.88ZM383.719,75.88C391.469,75.88,397.797,72.8487,402.672,67.1612L396.36,59.8644C393.235,63.2706,389.313,65.6456,384.188,65.6456C374.829,65.6456,368.829,57.9737,368.829,45.2237C368.829,32.6456,375.469,25.0519,384.438,25.0519C388.907,25.0519,392.36,27.0987,395.391,29.9581L401.547,22.4894C397.719,18.4894,391.797,14.88,384.188,14.88C369.235,14.88,356.672,26.3175,356.672,45.63C356.672,65.1769,368.829,75.88,383.719,75.88ZM411.626,74.88L448.829,74.88L448.829,64.9737L423.469,64.9737L423.469,48.88L444.188,48.88L444.188,38.9737L423.469,38.9737L423.469,25.8019L447.954,25.8019L447.954,15.88L411.626,15.88L411.626,74.88ZM460.64,74.88L471.28,74.88L471.28,50.16C471.28,44.48,470.32,36.32,469.76,30.72L470.08,30.72L474.8,44.64L484,69.52L490.8,69.52L499.92,44.64L504.72,30.72L505.12,30.72C504.48,36.32,503.6,44.48,503.6,50.16L503.6,74.88L514.4,74.88L514.4,15.6L501.28,15.6L491.36,43.44C490.16,47.04,489.12,50.96,487.84,54.72L487.44,54.72C486.24,50.96,485.12,47.04,483.84,43.44L473.76,15.6L460.64,15.6L460.64,74.88ZM528.866,74.88L566.069,74.88L566.069,64.9737L540.709,64.9737L540.709,48.88L561.428,48.88L561.428,38.9737L540.709,38.9737L540.709,25.8019L565.194,25.8019L565.194,15.88L528.866,15.88L528.866,74.88ZM577.88,74.88L589.16,74.88L589.16,51.12C589.16,44.32,588.12,36.88,587.64,30.48L588.04,30.48L594.04,43.2L611.08,74.88L623.16,74.88L623.16,15.6L611.96,15.6L611.96,39.28C611.96,46,612.92,53.84,613.56,60L613.16,60L607.16,47.2L589.96,15.6L577.88,15.6L577.88,74.88ZM649.551,74.88L661.395,74.88L661.395,25.8019L678.114,25.8019L678.114,15.88L632.911,15.88L632.911,25.8019L649.551,25.8019L649.551,74.88Z" fill="#FFFFFF" fill-opacity="1"/></g></svg>