<svg xmlns="http://www.w3.org/2000/svg" xmlns:xlink="http://www.w3.org/1999/xlink" fill="none" version="1.1" width="299" height="80" viewBox="0 0 299 80"><g style="opacity:0.20000000298023224;"><path d="M24.9531,75.88C38.6406,75.88,46.7188,67.6456,46.7188,58.0519C46.7188,49.5831,42,44.9894,34.7969,42.0675L27.0312,38.9737C22,36.9112,17.8281,35.4112,17.8281,31.2237C17.8281,27.3331,21.0312,25.0519,26.2344,25.0519C31.1875,25.0519,35.1094,26.8644,38.875,29.88L44.875,22.5675C40.0781,17.6925,33.1875,14.88,26.2344,14.88C14.3125,14.88,5.75,22.4112,5.75,31.9269C5.75,40.4737,11.8281,45.2237,17.8281,47.5987L25.6719,51.005C30.9531,53.2237,34.6406,54.5675,34.6406,58.9269C34.6406,63.0362,31.3594,65.6456,25.1875,65.6456C20,65.6456,14.3125,63.0362,10.1562,59.1612L3.35938,67.255C9.10938,72.8487,17.0312,75.88,24.9531,75.88ZM49.6719,74.88L61.6719,74.88L65.8281,59.88L84.9531,59.88L89.1094,74.88L101.594,74.88L82.6406,15.88L68.625,15.88L49.6719,74.88ZM68.3906,50.6925L70.1562,44.2237C71.9062,38.0831,73.5938,31.38,75.1875,24.9269L75.5156,24.9269C77.2656,31.2237,78.875,38.0831,80.7188,44.2237L82.4688,50.6925L68.3906,50.6925ZM108.266,74.88L144.188,74.88L144.188,64.9737L120.109,64.9737L120.109,15.88L108.266,15.88L108.266,74.88ZM146.672,74.88L158.672,74.88L162.828,59.88L181.953,59.88L186.109,74.88L198.594,74.88L179.641,15.88L165.625,15.88L146.672,74.88ZM165.391,50.6925L167.156,44.2237C168.906,38.0831,170.594,31.38,172.188,24.9269L172.516,24.9269C174.266,31.2237,175.875,38.0831,177.719,44.2237L179.469,50.6925L165.391,50.6925ZM217.109,43.5206L217.109,25.3331L224.797,25.3331C232.391,25.3331,236.547,27.505,236.547,33.9425C236.547,40.3019,232.391,43.5206,224.797,43.5206L217.109,43.5206ZM237.516,74.88L250.719,74.88L236.875,51.0519C243.672,48.4112,248.156,42.88,248.156,33.9425C248.156,20.2862,238.312,15.88,225.828,15.88L205.266,15.88L205.266,74.88L217.109,74.88L217.109,52.88L225.359,52.88L237.516,74.88ZM270.359,74.88L282.109,74.88L282.109,53.3175L299.953,15.88L287.641,15.88L281.719,30.3019C279.953,34.6769,278.266,38.8175,276.438,43.3644L276.109,43.3644C274.266,38.8175,272.672,34.6769,271,30.3019L265.078,15.88L252.516,15.88L270.359,53.3175L270.359,74.88Z" fill="#FFFFFF" fill-opacity="1"/></g></svg>