<svg xmlns="http://www.w3.org/2000/svg" xmlns:xlink="http://www.w3.org/1999/xlink" fill="none" version="1.1" width="347" height="80" viewBox="0 0 347 80"><g style="opacity:0.20000000298023224;"><path d="M19.1094,43.5206L19.1094,25.3331L26.7969,25.3331C34.3906,25.3331,38.5469,27.505,38.5469,33.9425C38.5469,40.3019,34.3906,43.5206,26.7969,43.5206L19.1094,43.5206ZM39.5156,74.88L52.7188,74.88L38.875,51.0519C45.6719,48.4112,50.1562,42.88,50.1562,33.9425C50.1562,20.2862,40.3125,15.88,27.8281,15.88L7.26562,15.88L7.26562,74.88L19.1094,74.88L19.1094,52.88L27.3594,52.88L39.5156,74.88ZM62.2656,74.88L99.4688,74.88L99.4688,64.9737L74.1094,64.9737L74.1094,48.88L94.8281,48.88L94.8281,38.9737L74.1094,38.9737L74.1094,25.8019L98.5938,25.8019L98.5938,15.88L62.2656,15.88L62.2656,74.88ZM135.359,75.88C143.109,75.88,149.438,72.8487,154.312,67.1612L148,59.8644C144.875,63.2706,140.953,65.6456,135.828,65.6456C126.469,65.6456,120.469,57.9737,120.469,45.2237C120.469,32.6456,127.109,25.0519,136.078,25.0519C140.547,25.0519,144,27.0987,147.031,29.9581L153.188,22.4894C149.359,18.4894,143.438,14.88,135.828,14.88C120.875,14.88,108.312,26.3175,108.312,45.63C108.312,65.1769,120.469,75.88,135.359,75.88ZM175.109,43.5206L175.109,25.3331L182.797,25.3331C190.391,25.3331,194.547,27.505,194.547,33.9425C194.547,40.3019,190.391,43.5206,182.797,43.5206L175.109,43.5206ZM195.516,74.88L208.719,74.88L194.875,51.0519C201.672,48.4112,206.156,42.88,206.156,33.9425C206.156,20.2862,196.312,15.88,183.828,15.88L163.266,15.88L163.266,74.88L175.109,74.88L175.109,52.88L183.359,52.88L195.516,74.88ZM241.078,75.88C255.469,75.88,263.875,67.7237,263.875,48.2706L263.875,15.88L252.516,15.88L252.516,49.3019C252.516,61.5206,247.953,65.6456,241.078,65.6456C234.109,65.6456,229.797,61.5206,229.797,49.3019L229.797,15.88L218.031,15.88L218.031,48.2706C218.031,67.7237,226.516,75.88,241.078,75.88ZM278.266,74.88L290.109,74.88L290.109,15.88L278.266,15.88L278.266,74.88ZM316.031,74.88L327.875,74.88L327.875,25.8019L344.594,25.8019L344.594,15.88L299.391,15.88L299.391,25.8019L316.031,25.8019L316.031,74.88Z" fill="#FFFFFF" fill-opacity="1"/></g></svg>