<svg xmlns="http://www.w3.org/2000/svg" xmlns:xlink="http://www.w3.org/1999/xlink" fill="none" version="1.1" width="240" height="60" viewBox="0 0 240 60"><g><path d="M44.5156,30.9256C43.375,34.8319,41.8125,38.3006,39.7031,41.4725C37.4375,38.3631,35.625,34.8319,34.3125,30.9881L30.8281,31.8944C33.2969,29.0975,35.75,25.9256,37.6719,22.8162L31.3125,19.8319C28.9688,23.8475,25.0156,28.785,21.2969,31.785C22.7969,32.8787,25.0781,34.9412,26.2656,36.3475L28.6094,34.16C30.4062,38.9725,32.5781,43.3006,35.2031,47.0194C31.375,50.9256,26.5781,53.9725,20.875,56.1756C22.25,57.3944,24.4062,60.2537,25.375,61.8319C31.0781,59.5194,35.875,56.41,39.8281,52.5662C43.7344,56.41,48.4688,59.4569,54.1719,61.4725C55.1875,59.3944,57.3438,56.3475,58.9688,54.8319C53.3281,53.1756,48.5312,50.5037,44.625,46.9569C47.3906,43.0662,49.6094,38.5506,51.1719,33.4256C51.7656,34.3319,52.3125,35.1912,52.6719,35.9256L57.9531,31.2225C56.0312,27.8787,51.8281,23.2381,48.0469,19.7694L57.5312,19.7694L57.5312,13.16L41.0938,13.16L44.9375,11.5037C44.0938,9.33187,42.2344,6.19125,40.375,3.8475L33.9531,6.31625C35.3906,8.285,36.9531,11.0662,37.7969,13.16L24.2344,13.16L24.2344,19.7694L46.6719,19.7694L42.5312,23.3006C45.2969,25.9881,48.3438,29.4569,50.5625,32.5037L44.5156,30.9256ZM10.125,4.51937L10.125,16.5037L2.98438,16.5037L2.98438,23.16L8.9375,23.16C7.4375,30.6444,4.48438,39.3475,1.07812,44.1912C2.21875,46.0819,3.76562,49.4569,4.4375,51.4725C6.59375,47.9256,8.57812,42.66,10.125,36.9569L10.125,61.7694L16.7344,61.7694L16.7344,34.6287C18.0469,37.5662,19.375,40.6287,20.0938,42.7225L24.1719,37.2694C23.0938,35.4256,18.2344,27.2694,16.7344,25.1287L16.7344,23.16L22.7344,23.16L22.7344,16.16L16.7344,16.16L16.7344,4.44125L10.125,4.51937ZM76.1875,18.16L76.1875,23.8631L103.797,23.8631L103.797,18.16L76.1875,18.16ZM73.125,28.16L73.125,34.0506L80.6875,34.0506C80.0938,40.3162,78.2969,43.9881,71.5781,46.3319C73.0156,47.4725,74.6875,49.9881,75.2969,51.66C83.9844,48.3006,86.3906,42.785,87.1094,34.0506L91.125,34.0506L91.125,42.8475C91.125,48.3006,92.2031,50.16,97.1875,50.16C98.1562,50.16,100.312,50.16,101.328,50.16C105.172,50.16,106.672,48.2537,107.266,41.2694C105.594,40.91,103.078,39.9569,101.875,38.9881C101.75,43.8006,101.516,44.535,100.609,44.535C100.125,44.535,98.6875,44.535,98.3281,44.535C97.4844,44.535,97.375,44.285,97.375,42.785L97.375,34.0506L106.547,34.0506L106.547,28.16L73.125,28.16ZM64.3125,7.16L64.3125,61.6912L71.5156,61.6912L71.5156,59.16L108.297,59.16L108.297,61.6912L115.797,61.6912L115.797,7.16L64.3125,7.16ZM71.5156,52.4412L71.5156,13.8944L108.297,13.8944L108.297,52.4412L71.5156,52.4412ZM128.516,4.64437L128.516,16.16L122.219,16.16L122.219,22.7694L128.516,22.7694L128.516,33.8944L121.25,35.6756L122.812,42.5819L128.516,40.9725L128.516,54.0819C128.516,54.8944,128.219,55.1444,127.484,55.1444C126.766,55.2069,124.609,55.2069,122.516,55.0819C123.406,57.1287,124.312,60.2537,124.438,62.16C128.391,62.16,131.031,61.8631,132.953,60.6756C134.875,59.535,135.469,57.5506,135.469,54.0819L135.469,38.9881L142.078,37.0037L141.109,30.535L135.469,32.035L135.469,22.7694L142.078,22.7694L142.078,16.16L135.469,16.16L135.469,4.64437L128.516,4.64437ZM145.078,36.16L145.078,61.7225L152.031,61.7225L152.031,59.16L168.172,59.16L168.172,61.4725L175.438,61.4725L175.438,36.16L145.078,36.16ZM152.031,52.6912L152.031,42.5819L168.172,42.5819L168.172,52.6912L152.031,52.6912ZM143.516,7.62875L143.516,14.16L151.969,14.16C151.078,20.66,148.906,26.1131,141.172,29.4412C142.734,30.7069,144.656,33.285,145.438,35.1287C155.156,30.6444,158.094,23.16,159.172,14.16L169.125,14.16C168.766,21.9256,168.344,25.3319,167.562,26.3787C167.031,26.9725,166.484,27.16,165.594,27.16C164.578,27.16,162.469,27.0975,160.125,26.91C161.266,28.7225,162.047,31.6131,162.172,33.7069C164.984,33.7694,167.688,33.7069,169.25,33.4725C171.047,33.2225,172.438,32.6287,173.688,31.0662C175.25,29.1444,175.797,23.4256,176.328,10.3944C176.391,9.48812,176.391,7.62875,176.391,7.62875L143.516,7.62875ZM181.672,47.0662L182.938,53.91L196.734,51.0975L196.734,61.535L203.156,61.535L203.156,49.785L206.453,49.1131L205.969,42.9725L203.156,43.41L203.156,13.16L206.031,13.16L206.031,6.75375L182.156,6.75375L182.156,13.16L185.391,13.16L185.391,46.4725L181.672,47.0662ZM191.625,13.16L196.734,13.16L196.734,20.16L191.625,20.16L191.625,13.16ZM204.531,34.16L204.531,39.9881L211.734,39.9881C210.828,43.1287,209.75,46.535,208.797,49.16L228.047,49.16C227.625,52.3475,227.094,53.9725,226.375,54.5975C225.828,55.0975,225.172,55.16,224.156,55.16C222.891,55.16,219.891,55.0975,217.016,54.785C218.203,56.6131,219.047,59.2537,219.109,61.285C222.406,61.41,225.406,61.3475,227.156,61.2225C229.188,61.0506,230.688,60.5662,232.062,59.1912C233.688,57.5037,234.531,53.785,235.25,46.1131C235.375,45.2069,235.438,43.535,235.438,43.535L217.797,43.535L218.812,39.9881L238.188,39.9881L238.188,34.16L204.531,34.16ZM191.625,25.9881L196.734,25.9881L196.734,32.285L191.625,32.285L191.625,25.9881ZM191.625,38.16L196.734,38.16L196.734,44.5662L191.625,45.4881L191.625,38.16ZM213.234,22.785L218.031,22.785L218.031,26.16L213.234,26.16L213.234,22.785ZM224.625,22.785L229.188,22.785L229.188,26.16L224.625,26.16L224.625,22.785ZM213.234,14.16L218.031,14.16L218.031,18.16L213.234,18.16L213.234,14.16ZM224.625,14.16L229.188,14.16L229.188,18.16L224.625,18.16L224.625,14.16ZM218.031,4.42562L218.031,9.19125L206.984,9.19125L206.984,31.1444L235.734,31.1444L235.734,9.19125L224.625,9.19125L224.625,4.42562L218.031,4.42562Z" fill="#FFFFFF" fill-opacity="1"/></g></svg>