<svg xmlns="http://www.w3.org/2000/svg" xmlns:xlink="http://www.w3.org/1999/xlink" fill="none" version="1.1" width="240" height="60" viewBox="0 0 240 60"><g><path d="M21.4688,48.3944C22.9062,50.7381,24.5312,53.9256,25.3125,55.9412L29.6875,53.1912C28.9062,51.285,27.2344,48.2694,25.7344,46.0662L21.4688,48.3944ZM7.375,46.4256C6.10938,49.2537,3.95312,52.2069,1.54688,54.2381C2.75,54.9725,4.79688,56.5506,5.6875,57.3319C8.15625,55.035,10.7969,51.3475,12.3594,47.8475L7.375,46.4256ZM11.8125,17.3944C12.3594,18.4569,12.8281,19.7069,13.3125,20.8944L3.65625,20.8944L3.65625,26.16L10.4375,26.16L6.76562,27.0037C7.4375,28.4569,7.90625,30.2694,8.21875,31.8319L2.75,31.8319L2.75,37.16L13.6719,37.16L13.6719,40.16L3.59375,40.16L3.59375,45.6287L13.6719,45.6287L13.6719,54.8475C13.6719,55.41,13.5469,55.5819,12.9531,55.5819C12.3594,55.6444,10.5469,55.6444,8.8125,55.5194C9.59375,57.1444,10.4375,59.4881,10.6719,61.16C13.7344,61.16,16.0156,61.1131,17.75,60.1444C19.5469,59.2537,20.0312,57.7537,20.0312,54.9725L20.0312,45.6287L29.6875,45.6287L29.6875,40.16L20.0312,40.16L20.0312,37.16L30.2969,37.16L30.2969,31.8319L24.9531,31.8319L26.9844,27.0662L23.4531,26.16L29.5156,26.16L29.5156,20.8944L20.0938,20.8944C19.7344,19.7694,19.25,18.66,18.7188,17.5506L23.4531,17.5506L23.4531,14.41L36.2969,14.41L36.2969,17.7069L43.4844,17.7069L43.4844,14.41L56.9375,14.41L56.9375,8.16L43.4844,8.16L43.4844,4.50375L36.2969,4.50375L36.2969,8.16L23.4531,8.16L23.4531,4.50375L16.375,4.50375L16.375,8.16L3.17188,8.16L3.17188,14.41L16.375,14.41L16.375,16.16L11.8125,17.3944ZM12.4688,26.16L20.625,26.16C20.2188,27.91,19.4375,30.1444,18.8281,31.8319L14.2188,31.8319C13.9688,30.2069,13.375,27.9725,12.4688,26.16ZM33.1094,22.2069L33.1094,38.1444C33.1094,44.4881,32.5781,52.0194,27.0469,57.2069C28.375,58.1131,30.8906,60.6912,31.8438,62.0662C38.2031,56.2537,39.5312,46.5506,39.5938,39.16L44.4531,39.16L44.4531,61.4256L51.2344,61.4256L51.2344,39.16L57.5938,39.16L57.5938,32.9256L39.5938,32.9256L39.5938,26.6756C45.5312,25.5662,51.7656,24.0662,56.625,22.0819L51.4062,16.8319C46.9688,18.8631,39.6562,21.0037,33.1094,22.2069ZM62.2188,7.16L62.2188,12.8006L68.5781,12.8006L68.5781,18.3475L63.0469,18.3475L63.0469,61.3475L67.9062,61.3475L67.9062,57.6287L79.8438,57.6287L79.8438,60.2694L84.9531,60.2694L84.9531,36.66L88.25,39.66C89.5781,37.035,90.4062,33.535,90.8906,29.9881L90.8906,30.0506C90.8906,40.3475,90.2969,50.2694,85.7969,58.16C87.3438,58.9412,89.8125,60.66,91.0156,61.91C96.0469,52.9569,96.6562,41.6287,96.6562,30.1131C97.4844,33.0506,98.1562,35.9881,98.3906,38.2537L100.484,37.16L100.484,59.785L106.25,59.785L106.25,30.41C107.203,33.1756,107.984,35.8631,108.344,37.8944L110.266,36.8475L110.266,61.6444L116.266,61.6444L116.266,5.91L110.266,5.91L110.266,27.8475C109.547,25.9412,108.703,24.0506,107.875,22.4256L106.25,23.3319L106.25,7.05062L100.484,7.05062L100.484,27.535C99.9531,25.9412,99.3438,24.3475,98.75,22.9725L96.6562,24.1131L96.6562,5.9725L90.8906,5.9725L90.8906,23.2694L87.5312,22.2537C87.1719,26.9881,86.4531,32.3787,84.9531,35.8006L84.9531,18.3475L79.1875,18.3475L79.1875,12.8006L85.6719,12.8006L85.6719,7.16L62.2188,7.16ZM67.9062,48.16L79.8438,48.16L79.8438,52.16L67.9062,52.16L67.9062,48.16ZM67.9062,43.0662L67.9062,39.2537C68.5781,39.1756,69.4062,39.8631,69.7656,40.3475C72.4062,37.3319,72.9531,32.8475,72.9531,29.4569L72.9531,24.16L74.75,24.16L74.75,33.3944C74.75,36.9256,75.4688,37.7069,78.1719,37.7069L79.8438,37.7069L79.8438,43.0662L67.9062,43.0662ZM72.9531,18.3475L72.9531,12.8006L74.75,12.8006L74.75,18.3475L72.9531,18.3475ZM67.9062,37.2069L67.9062,24.16L69.7188,24.16L69.7188,29.4569C69.7188,31.9256,69.5312,34.7537,67.9062,37.2069ZM78.0469,24.16L79.8438,24.16L79.8438,34.16L79.6094,34.16C79.375,34.16,78.7656,34.16,78.5938,34.16C78.1094,34.16,78.0469,34.1131,78.0469,33.3006L78.0469,24.16ZM153.953,21.16L167.391,21.16L167.391,25.7069L153.953,25.7069L153.953,21.16ZM147.594,15.7069L147.594,31.16L174.047,31.16L174.047,15.7069L147.594,15.7069ZM144.297,7.11312L144.297,13.16L176.875,13.16L176.875,7.11312L144.297,7.11312ZM122.938,15.6912L122.938,22.16L136.078,22.16C132.469,29.4881,126.719,36.1131,120.719,39.7069C121.797,41.035,123.469,44.66,124.078,46.5975C126.109,45.2069,128.219,43.4569,130.188,41.5194L130.188,61.785L137.219,61.785L137.219,37.4881C138.953,39.4725,140.688,41.5819,141.766,43.0975L144.594,39.16L144.594,61.66L151.188,61.66L151.188,59.16L169.734,59.16L169.734,61.5975L176.688,61.5975L176.688,34.16L144.594,34.16L144.594,36.035C142.906,34.535,140.328,32.2381,138.719,30.9412C141.234,26.9725,143.328,22.6287,144.891,18.16L140.875,15.3944L139.672,15.6912L132.594,15.6912L137.219,13.3944C136.25,11.0506,134.156,7.48812,132.359,4.785L126.719,7.25375C128.266,9.785,130.125,13.2694,131.156,15.6912L122.938,15.6912ZM157.188,39.9256L157.188,43.7694L151.188,43.7694L151.188,39.9256L157.188,39.9256ZM163.609,39.9256L169.734,39.9256L169.734,43.7694L163.609,43.7694L163.609,39.9256ZM157.188,49.16L157.188,53.41L151.188,53.41L151.188,49.16L157.188,49.16ZM163.609,49.16L169.734,49.16L169.734,53.41L163.609,53.41L163.609,49.16ZM214.312,11.8631L214.312,45.9725L221.266,45.9725L221.266,11.8631L214.312,11.8631ZM228.531,5.62875L228.531,52.5819C228.531,53.7381,228.047,54.1131,226.906,54.16C225.656,54.16,221.75,54.16,217.797,53.9881C218.875,56.035,220.016,59.3944,220.312,61.4256C225.828,61.4256,229.797,61.1912,232.312,60.0506C234.766,58.8475,235.672,56.8631,235.672,52.6444L235.672,5.62875L228.531,5.62875ZM206.156,4.7225C200.328,7.39437,190.609,9.69125,181.906,11.0194C182.75,12.535,183.719,15.0037,184.016,16.7069C187.25,16.285,190.672,15.6756,194.094,15.0037L194.094,22.5037L182.625,22.5037L182.625,29.16L192.656,29.16C189.953,35.5819,185.578,42.4881,181.25,46.7069C182.391,48.66,184.188,51.785,184.906,53.9256C188.266,50.3787,191.453,45.1756,194.094,39.6131L194.094,61.3631L201.109,61.3631L201.109,40.3475C203.516,42.9256,205.969,45.6756,207.469,47.5662L211.609,41.2069C210.047,39.8631,204.047,34.7225,201.109,32.4725L201.109,29.16L211.375,29.16L211.375,22.5037L201.109,22.5037L201.109,13.4881C204.766,12.5819,208.25,11.5037,211.25,10.285L206.156,4.7225Z" fill="#FFFFFF" fill-opacity="1"/></g></svg>