<svg xmlns="http://www.w3.org/2000/svg" xmlns:xlink="http://www.w3.org/1999/xlink" fill="none" version="1.1" width="240" height="60" viewBox="0 0 240 60"><g><path d="M8.4,7.8375C10.2,10.0678,12.12,13.0153,13.2,15.24L2.7,15.24L2.7,21.72L16.44,21.72C12.78,28.08,6.9,34.02,0.9,37.26C1.8,38.7,3.18,42.6,3.66,44.7C6,43.26,8.34,41.4,10.56,39.3L10.56,61.5159L17.58,61.5159L17.58,37.98C19.26,40.08,20.94,42.24,21.96,43.8L26.4,37.86C25.26,36.66,20.88,32.46,18.42,30.3C21.24,26.4,23.64,22.14,25.38,17.7L21.6,15L20.34,15.24L14.88,15.24L19.5,12.5334C18.42,10.3078,16.14,7.12031,14.04,4.83469L8.4,7.8375ZM37.8,5.49562L37.8,23.16L25.98,23.16L25.98,30.12L37.8,30.12L37.8,52.56L23.34,52.56L23.34,59.64L58.08,59.64L58.08,52.56L45.24,52.56L45.24,30.12L56.64,30.12L56.64,23.16L45.24,23.16L45.24,5.49375L37.8,5.49562ZM69.54,60.5062C72.54,59.3644,76.68,59.1844,106.38,56.9616C107.58,58.5834,108.6,60.1462,109.32,61.5281L115.86,57.6225C113.1,53.0559,107.58,46.7475,102.36,42.1209L96.18,45.3047C97.92,46.9275,99.66,48.7903,101.34,50.6522L80.4,51.8541C83.76,48.7903,87.06,45.3656,89.82,41.94L115.14,41.94L115.14,34.92L65.28,34.92L65.28,41.94L79.8,41.94C76.56,45.9056,73.32,49.0903,71.88,50.1722C69.96,51.8541,68.7,52.8759,67.08,53.1759C67.92,55.2188,69.12,58.9444,69.54,60.5062ZM89.76,4.83281C84,12.5841,73.08,19.9153,61.62,24.24C63.3,25.68,65.76,28.86,66.78,30.66C69.96,29.22,73.08,27.66,76.02,25.86L76.02,29.88L104.16,29.88L104.16,25.38C107.22,27.18,110.4,28.8,113.52,30.06C114.66,28.14,117,25.2,118.62,23.76C109.68,20.9372,100.2,15.4688,94.32,10.5413L96.3,7.9575L89.76,4.83281ZM80.1,23.28C83.76,20.8172,87.12,18.0525,90.12,15.1078C93.06,17.8125,96.78,20.6362,100.74,23.28L80.1,23.28ZM128.516,4.64437L128.516,16.16L122.219,16.16L122.219,22.7694L128.516,22.7694L128.516,33.8944L121.25,35.6756L122.812,42.5819L128.516,40.9725L128.516,54.0819C128.516,54.8944,128.219,55.1444,127.484,55.1444C126.766,55.2069,124.609,55.2069,122.516,55.0819C123.406,57.1287,124.312,60.2537,124.438,62.16C128.391,62.16,131.031,61.8631,132.953,60.6756C134.875,59.535,135.469,57.5506,135.469,54.0819L135.469,38.9881L142.078,37.0037L141.109,30.535L135.469,32.035L135.469,22.7694L142.078,22.7694L142.078,16.16L135.469,16.16L135.469,4.64437L128.516,4.64437ZM145.078,36.16L145.078,61.7225L152.031,61.7225L152.031,59.16L168.172,59.16L168.172,61.4725L175.438,61.4725L175.438,36.16L145.078,36.16ZM152.031,52.6912L152.031,42.5819L168.172,42.5819L168.172,52.6912L152.031,52.6912ZM143.516,7.62875L143.516,14.16L151.969,14.16C151.078,20.66,148.906,26.1131,141.172,29.4412C142.734,30.7069,144.656,33.285,145.438,35.1287C155.156,30.6444,158.094,23.16,159.172,14.16L169.125,14.16C168.766,21.9256,168.344,25.3319,167.562,26.3787C167.031,26.9725,166.484,27.16,165.594,27.16C164.578,27.16,162.469,27.0975,160.125,26.91C161.266,28.7225,162.047,31.6131,162.172,33.7069C164.984,33.7694,167.688,33.7069,169.25,33.4725C171.047,33.2225,172.438,32.6287,173.688,31.0662C175.25,29.1444,175.797,23.4256,176.328,10.3944C176.391,9.48812,176.391,7.62875,176.391,7.62875L143.516,7.62875ZM181.672,47.0662L182.938,53.91L196.734,51.0975L196.734,61.535L203.156,61.535L203.156,49.785L206.453,49.1131L205.969,42.9725L203.156,43.41L203.156,13.16L206.031,13.16L206.031,6.75375L182.156,6.75375L182.156,13.16L185.391,13.16L185.391,46.4725L181.672,47.0662ZM191.625,13.16L196.734,13.16L196.734,20.16L191.625,20.16L191.625,13.16ZM204.531,34.16L204.531,39.9881L211.734,39.9881C210.828,43.1287,209.75,46.535,208.797,49.16L228.047,49.16C227.625,52.3475,227.094,53.9725,226.375,54.5975C225.828,55.0975,225.172,55.16,224.156,55.16C222.891,55.16,219.891,55.0975,217.016,54.785C218.203,56.6131,219.047,59.2537,219.109,61.285C222.406,61.41,225.406,61.3475,227.156,61.2225C229.188,61.0506,230.688,60.5662,232.062,59.1912C233.688,57.5037,234.531,53.785,235.25,46.1131C235.375,45.2069,235.438,43.535,235.438,43.535L217.797,43.535L218.812,39.9881L238.188,39.9881L238.188,34.16L204.531,34.16ZM191.625,25.9881L196.734,25.9881L196.734,32.285L191.625,32.285L191.625,25.9881ZM191.625,38.16L196.734,38.16L196.734,44.5662L191.625,45.4881L191.625,38.16ZM213.234,22.785L218.031,22.785L218.031,26.16L213.234,26.16L213.234,22.785ZM224.625,22.785L229.188,22.785L229.188,26.16L224.625,26.16L224.625,22.785ZM213.234,14.16L218.031,14.16L218.031,18.16L213.234,18.16L213.234,14.16ZM224.625,14.16L229.188,14.16L229.188,18.16L224.625,18.16L224.625,14.16ZM218.031,4.42562L218.031,9.19125L206.984,9.19125L206.984,31.1444L235.734,31.1444L235.734,9.19125L224.625,9.19125L224.625,4.42562L218.031,4.42562Z" fill="#FFFFFF" fill-opacity="1"/></g></svg>