<svg xmlns="http://www.w3.org/2000/svg" xmlns:xlink="http://www.w3.org/1999/xlink" fill="none" version="1.1" width="240" height="60" viewBox="0 0 240 60"><g><path d="M8.52,5.04219L8.52,16.4L2.22,16.4L2.22,23L8.52,23L8.52,33.74L1.26,35.48L2.82,42.38L8.52,40.76L8.52,53.36C8.52,54.14,8.22,54.38,7.5,54.38C6.78,54.44,4.62,54.44,2.52,54.32C3.42,56.36,4.32,59.48,4.44,61.4C8.4,61.4,11.04,61.1,12.96,59.9C14.88,58.76,15.48,56.78,15.48,53.36L15.48,38.78L22.08,36.8L21.12,30.38L15.48,31.88L15.48,23L22.08,23L22.08,16.4L15.48,16.4L15.48,5.04219L8.52,5.04219ZM25.08,35.96L25.08,61.3578L32.04,61.3578L32.04,58.88L48.18,58.88L48.18,61.1159L55.44,61.1159L55.44,35.96L25.08,35.96ZM32.04,52.4L32.04,42.38L48.18,42.38L48.18,52.4L32.04,52.4ZM23.52,7.88L23.52,14.42L31.98,14.42C31.08,20.9,28.92,26.06,21.18,29.3C22.74,30.56,24.66,33.14,25.44,34.94C35.16,30.5,38.1,23.36,39.18,14.42L49.14,14.42C48.78,22.16,48.36,25.34,47.58,26.3C47.04,26.84,46.5,27.02,45.6,27.02C44.58,27.02,42.48,26.96,40.14,26.78C41.28,28.58,42.06,31.46,42.18,33.56C45,33.62,47.7,33.56,49.26,33.32C51.06,33.08,52.44,32.48,53.7,30.92C55.26,29,55.8,23.6,56.34,10.64C56.4,9.74,56.4,7.88,56.4,7.88L23.52,7.88ZM61.68,46.94L62.94,53.6L76.74,50.9L76.74,61.1637L83.16,61.1637L83.16,49.64L86.46,48.98L85.98,42.8L83.16,43.28L83.16,13.7L86.04,13.7L86.04,7.28L62.16,7.28L62.16,13.7L65.4,13.7L65.4,46.34L61.68,46.94ZM71.64,13.7L76.74,13.7L76.74,20.06L71.64,20.06L71.64,13.7ZM84.54,33.8L84.54,39.62L91.74,39.62C90.84,42.98,89.76,46.4,88.8,49.04L108.06,49.04C107.64,52.1,107.1,53.66,106.38,54.26C105.84,54.74,105.18,54.8,104.16,54.8C102.9,54.8,99.9,54.74,97.02,54.44C98.22,56.24,99.06,58.88,99.12,60.92C102.42,61.0419,105.42,60.9809,107.16,60.86C109.2,60.68,110.7,60.2,112.08,58.82C113.7,57.14,114.54,53.48,115.26,45.98C115.38,45.08,115.44,43.4,115.44,43.4L97.8,43.4L98.82,39.62L118.2,39.62L118.2,33.8L84.54,33.8ZM71.64,25.88L76.74,25.88L76.74,32.24L71.64,32.24L71.64,25.88ZM71.64,38.12L76.74,38.12L76.74,44.4284L71.64,45.3294L71.64,38.12ZM93.24,22.76L98.04,22.76L98.04,26.18L93.24,26.18L93.24,22.76ZM104.64,22.76L109.2,22.76L109.2,26.18L104.64,26.18L104.64,22.76ZM93.24,14.84L98.04,14.84L98.04,18.14L93.24,18.14L93.24,14.84ZM104.64,14.84L109.2,14.84L109.2,18.14L104.64,18.14L104.64,14.84ZM98.04,4.97844L98.04,9.86L87,9.86L87,31.16L115.74,31.16L115.74,9.86L104.64,9.86L104.64,4.97844L98.04,4.97844ZM137.82,6.38C134.58,15.02,128.76,23.48,122.28,28.52C124.2,29.72,127.56,32.3,129.06,33.68C135.36,27.8,141.78,18.38,145.74,8.6L137.82,6.38ZM161.46,5.96L154.38,8.84C159,17.66,166.2,27.38,172.32,33.62C173.7,31.7,176.4,28.88,178.32,27.44C172.32,22.22,165.12,13.4,161.46,5.96ZM129.06,58.4C132,57.2,136.08,56.96,165.24,54.5C166.8,57.02,168.06,59.42,169.02,61.4L176.22,57.5C173.28,51.86,167.58,43.34,162.54,36.74L155.7,39.86C157.44,42.26,159.3,45.02,161.1,47.78L138.66,49.28C144.24,42.8,149.82,34.7,154.26,26.3L146.22,22.88C141.78,32.96,134.46,43.34,131.94,46.04C129.66,48.74,128.22,50.24,126.3,50.78C127.26,52.88,128.64,56.84,129.06,58.4ZM193.26,5.15656C191.16,11.6572,187.44,18.32,183.06,22.34C184.86,23.18,188.16,25.04,189.66,26.18C191.34,24.32,193.02,21.98,194.64,19.4L207.72,19.4L207.72,26.3L183.48,26.3L183.48,32.96L236.58,32.96L236.58,26.3L215.34,26.3L215.34,19.4L232.92,19.4L232.92,12.8L215.34,12.8L215.34,4.97563L207.72,4.97563L207.72,12.8L198.12,12.8C199.02,10.8744,199.8,8.88781,200.46,6.90219L193.26,5.15656ZM190.38,37.28L190.38,61.5997L197.76,61.5997L197.76,58.64L223.08,58.64L223.08,61.4188L230.76,61.4188L230.76,37.28L190.38,37.28ZM197.76,51.98L197.76,43.88L223.08,43.88L223.08,51.98L197.76,51.98Z" fill="#FFFFFF" fill-opacity="1"/></g></svg>